<?xml version="1.0" encoding="UTF-8"?>
<svg width="1024px" height="1024px" viewBox="0 0 1024 1024" version="1.1" xmlns="http://www.w3.org/2000/svg" xmlns:xlink="http://www.w3.org/1999/xlink">
    <!-- Generator: Sketch 47.1 (45422) - http://www.bohemiancoding.com/sketch -->
    <title>Icon Idea 6</title>
    <desc>Created with Sketch.</desc>
    <defs></defs>
    <g id="App-Icon" stroke="none" stroke-width="1" fill="none" fill-rule="evenodd">
        <g id="Icon-Idea-6">
            <rect id="Rectangle" fill="#F16262" x="0" y="0" width="1024" height="1024"></rect>
            <g id="Group" transform="translate(126.000000, 198.000000)">
                <path d="M162.432503,607.542907 L162.432503,493.842439 L89,295.774585 L239.654288,388.525231 L239.654288,112 L385.725721,364.235804 C385.725721,485.680334 385.725721,573.511815 385.725721,627.730247 C236.863576,626.99008 162.432503,620.260967 162.432503,607.542907 Z M609.018939,607.542907 C609.018939,620.260967 534.587866,626.99008 385.725721,627.730247 C385.725721,573.511815 385.725721,485.680334 385.725721,364.235804 L531.797154,112 L531.797154,388.525231 L682.451442,295.774585 L609.018939,493.842439 L609.018939,607.542907 Z" id="Combined-Shape" fill="#FFFFFF"></path>
                <circle id="Oval" fill="#FFFFFF" cx="225" cy="45" r="45"></circle>
                <circle id="Oval" fill="#FFFFFF" cx="45" cy="242" r="45"></circle>
                <circle id="Oval" fill="#FFFFFF" cx="540.704216" cy="44.7042165" r="44.7042165"></circle>
                <circle id="Oval" fill="#FFFFFF" cx="727.881207" cy="241.881207" r="44.8812073"></circle>
                <path d="M193,518 C193.436918,527.694435 258.090348,532.541653 386.960292,532.541653 C515.830235,532.541653 580.483666,527.694435 580.920583,518 L580.920583,556.825397 C580.006855,566.700542 515.353424,571.638114 386.960292,571.638114 C258.567159,571.638114 193.913728,566.700542 193,556.825397 L193,518 Z" id="Rectangle-6" fill="#F16262"></path>
                <path d="M196.210416,487.988085 C209.584413,498.158415 273.199744,503.24358 387.056408,503.24358 C500.913072,503.24358 564.484818,498.158415 577.771645,487.988085 L587.111089,419.12179 L493.111016,450.560995 L477.414198,335 L387.056408,450.560995 L294.923615,335 L281.0018,450.560995 L185,419.12179 L196.210416,487.988085 Z" id="Path-5" fill="#F16262"></path>
            </g>
        </g>
    </g>
</svg>